<svg width="64" height="64" viewBox="0 0 64 64" fill="none" xmlns="http://www.w3.org/2000/svg">
<g clip-path="url(#clip0_3_6)">
<path d="M32 0H52C58.6274 0 64 5.37258 64 12V52C64 58.6274 58.6274 64 52 64H32V0Z" fill="url(#paint0_linear_3_6)"/>
<path d="M32 15H64V52C64 58.6274 58.6274 64 52 64H32V15Z" fill="url(#paint1_linear_3_6)"/>
<path d="M0 10C0 4.47715 4.47715 0 10 0H32V64H10C4.47715 64 0 59.5228 0 54V10Z" fill="url(#paint2_linear_3_6)"/>
<rect x="1" y="1" width="62" height="62" rx="9" stroke="#152728" stroke-width="2"/>
<path d="M41 44H48" stroke="#49FF62" stroke-width="3" stroke-linecap="round"/>
<path d="M9 44L15 44" stroke="#526165" stroke-width="3" stroke-linecap="round"/>
<path d="M41 53L55 53" stroke="white" stroke-width="3" stroke-linecap="round"/>
<path d="M9 53L24 53" stroke="#32484E" stroke-width="3" stroke-linecap="round"/>
<path d="M41 34H55" stroke="#49FF62" stroke-width="3" stroke-linecap="round"/>
<path d="M10 34H24" stroke="#526165" stroke-width="3" stroke-linecap="round"/>
<path d="M9 34L12 37" stroke="#526165" stroke-width="2" stroke-linecap="round"/>
<path d="M9 34L12 31" stroke="#526165" stroke-width="2" stroke-linecap="round"/>
<path d="M40 34L43 37" stroke="#49FF62" stroke-width="2" stroke-linecap="round"/>
<path d="M40 34L43 31" stroke="#49FF62" stroke-width="2" stroke-linecap="round"/>
<path d="M41 24L55 24" stroke="white" stroke-width="3" stroke-linecap="round"/>
<path d="M9 24L24 24" stroke="#32484E" stroke-width="3" stroke-linecap="round"/>
<path d="M9 9L14 9" stroke="#32484E" stroke-width="3" stroke-linecap="round"/>
<circle cx="55" cy="9" r="3" fill="#152728"/>
<circle cx="55" cy="9" r="1" fill="#49FF62"/>
<circle cx="47.5" cy="9" r="1.5" fill="#152728"/>
</g>
<defs>
<linearGradient id="paint0_linear_3_6" x1="48" y1="0" x2="48" y2="64" gradientUnits="userSpaceOnUse">
<stop stop-color="#49FF62"/>
<stop offset="0.32" stop-color="#0BE337"/>
</linearGradient>
<linearGradient id="paint1_linear_3_6" x1="48" y1="15" x2="48" y2="64" gradientUnits="userSpaceOnUse">
<stop stop-color="#4F5558"/>
<stop offset="1" stop-color="#575E60"/>
</linearGradient>
<linearGradient id="paint2_linear_3_6" x1="16" y1="0" x2="16" y2="64" gradientUnits="userSpaceOnUse">
<stop stop-color="#F4F4F4"/>
<stop offset="0.227918" stop-color="#ECECEC"/>
<stop offset="0.247212" stop-color="white"/>
<stop offset="1" stop-color="#D9D9D9"/>
</linearGradient>
<clipPath id="clip0_3_6">
<rect width="64" height="64" fill="white"/>
</clipPath>
</defs>
</svg>
